<?xml version="1.0" encoding="UTF-8"?>
<svg id="Capa_1" xmlns="http://www.w3.org/2000/svg" version="1.1" viewBox="0 0 47.82 215.43">
  <!-- Generator: Adobe Illustrator 29.5.1, SVG Export Plug-In . SVG Version: 2.1.0 Build 141)  -->
  <defs>
    <style>
      .st0 {
        fill: #fff;
      }
    </style>
  </defs>
  <polygon class="st0" points="47.82 81.3 0 47.82 0 0 47.82 33.48 47.82 81.3"/>
  <polygon class="st0" points="47.82 108.12 0 74.64 0 58.07 47.82 91.55 47.82 108.12"/>
  <polygon class="st0" points="47.82 134.95 0 101.47 0 84.89 47.82 118.38 47.82 134.95"/>
  <polygon class="st0" points="47.82 161.77 0 128.29 0 111.72 47.82 145.2 47.82 161.77"/>
  <polygon class="st0" points="47.82 188.6 0 155.12 0 138.55 47.82 172.03 47.82 188.6"/>
  <polygon class="st0" points="47.82 215.43 0 181.95 0 165.37 47.82 198.85 47.82 215.43"/>
</svg>