<?xml version="1.0" encoding="UTF-8"?>
<svg id="Object" xmlns="http://www.w3.org/2000/svg" viewBox="0 0 453.74 272.02">
  <defs>
    <style>
      .cls-1 {
        fill: #fff;
      }

      .cls-2 {
        fill: #3a3a3a;
      }
    </style>
  </defs>
  <g>
    <polygon class="cls-1" points="452.93 177.35 452.93 174.69 452.93 160.35 442.1 160.35 442.1 174.94 444.26 174.94 444.26 196.81 442.1 196.81 442.1 201.06 452.93 201.06 452.93 177.35"/>
    <path class="cls-1" d="M149.06,243.09l-16.15,16.15h-8.69v2.32h-8.12v-2.32h-10.69l8.7,8.7h65.68l-12.19-12.19v-12.66h-18.54ZM156.4,258.49v.75h-7.93v-7.93h7.93v7.18Z"/>
    <path class="cls-1" d="M338.54,247.69l14.75-14.75h10.56v-13.29h-32.03l-20.29,20.29h-55.92l-8.08-8.08h-14.45l8.27,8.27v7.56h24.25v-2.25h57.38v2.25h15.56ZM334.26,225.75c2.42,0,4.37,1.96,4.38,4.38,0,2.42-1.96,4.37-4.38,4.38-2.42,0-4.37-1.96-4.38-4.38,0-2.42,1.96-4.38,4.38-4.38Z"/>
    <polygon class="cls-1" points="103.29 259.24 84.23 259.24 .74 175.75 .74 181.48 87.2 267.94 111.98 267.94 103.29 259.24"/>
    <rect class="cls-1" x="356.6" y="238" width="37.75" height="2.09"/>
    <path class="cls-1" d="M196.35,257.74v-10.05h43.5v-6.94l-8.89-8.89h-87.59l-18.5,18.5h-41.33L7.86,174.69H1.8l83.06,83.05h31.24v-2.46h8.12v2.46h8.06l16.15-16.15h37.91v16.15h10ZM232.22,237.25v7.18l-6.22-3.59,6.22-3.59ZM223.06,237.25v7.18l-6.22-3.59,6.22-3.59ZM213.89,237.25v7.18l-6.22-3.59,6.22-3.59ZM204.72,237.25v7.18l-6.22-3.59,6.22-3.59ZM187.81,251.19h2.88v-2.88h1.75v2.88h2.88v1.75h-2.88v2.88h-1.75v-2.88h-2.88v-1.75Z"/>
    <path class="cls-1" d="M439.73,227.22l13.2-13.2v-11.46h-22.4l-19.62,19.62,19.44,19.44v5.19h1.12v11.68h-1.12v3.95h-55.25v9.58h77.9v-9.73l-13.27-13.27v-21.8ZM421.62,267.54h-38.04c-1,0-1.81-.81-1.81-1.81s.81-1.81,1.81-1.81h38.04c1,0,1.81.81,1.81,1.81s-.81,1.81-1.81,1.81ZM444.26,259.54c2.42,0,4.37,1.96,4.38,4.38,0,2.42-1.96,4.37-4.38,4.38-2.42,0-4.37-1.96-4.38-4.38,0-2.42,1.96-4.37,4.38-4.38Z"/>
    <path class="cls-1" d="M334.26,233c1.59,0,2.87-1.29,2.88-2.88,0-1.59-1.29-2.87-2.88-2.88-1.59,0-2.87,1.29-2.88,2.88,0,1.59,1.29,2.87,2.88,2.88ZM334.26,227.9c1.23,0,2.23,1,2.23,2.23s-1,2.23-2.23,2.23-2.23-1-2.23-2.23,1-2.23,2.23-2.23Z"/>
    <path class="cls-1" d="M440.6,174.94v-14.58h-2.9l-8.67,8.67v5.67h-23.83v24.65h-14.35l-20.31,20.31h-5.18v13.29h32.69l31.88-31.88h10.69v-4.25h-2.12v-21.88h2.12ZM395.1,213.31h-2.88v2.88h-1.75v-2.88h-2.88v-1.75h2.88v-2.88h1.75v2.88h2.88v1.75ZM427.6,180.52h-19.5v-3.27h19.5v3.27Z"/>
    <path class="cls-1" d="M444.26,266.79c1.59,0,2.87-1.29,2.88-2.88,0-1.59-1.29-2.87-2.88-2.88-1.59,0-2.87,1.29-2.88,2.88,0,1.59,1.29,2.87,2.88,2.88ZM444.26,261.69c1.23,0,2.23,1,2.23,2.23s-1,2.23-2.23,2.23-2.23-1-2.23-2.23,1-2.23,2.23-2.23Z"/>
    <path class="cls-1" d="M373.6,260.94h55.25v-2.45h-1.25v-11.68h1.25v-4.56l-19-19-11.19,11.19h-44.75l-14.75,14.75h-16.19v2h-57.38v-2h-67.75v10.05h-13v-16.15h-15.75v12.04l12.81,12.81h28.54l11.75-11.75h116.17l15.83,15.83h19.4v-11.08ZM355.1,236.5h40.75v5.09h-40.75v-5.09Z"/>
    <rect class="cls-1" x="149.97" y="252.81" width="4.93" height="4.93"/>
    <polygon class="cls-2" points="9.93 170.52 41.1 201.69 46.18 196.6 62.6 213.02 62.6 218.19 90.33 245.92 120.82 245.92 134.09 232.65 134.09 226.02 125.43 226.02 125.43 233.67 117.01 242.09 96.93 242.09 96.93 225.19 82.19 210.45 73.93 210.45 73.93 202.35 51.01 179.44 44.18 186.27 29.43 171.52 9.93 170.52"/>
    <polygon class="cls-2" points="1.78 244.13 1.78 246.97 26.56 271.74 29.41 271.76 1.78 244.13"/>
    <polygon class="cls-2" points="21.7 271.72 24.55 271.73 1.78 248.96 1.78 251.8 21.7 271.72"/>
    <polygon class="cls-2" points="8.9 230.12 4.17 234.86 41.12 271.81 83.35 272.02 49.76 238.43 40.85 238.43 25.01 222.59 25.01 213.44 1.75 190.18 1.75 204.19 8.9 211.34 8.9 230.12"/>
    <polygon class="cls-2" points="1.78 253.79 1.78 255.81 17.67 271.7 19.7 271.71 1.78 253.79"/>
    <polygon class="cls-2" points="3.17 235.85 1.78 237.24 1.78 237.31 36.27 271.79 39.12 271.8 3.17 235.85"/>
    <polygon class="cls-2" points="1.78 239.3 1.78 242.14 31.41 271.77 34.27 271.78 1.78 239.3"/>
  </g>
  <g>
    <polygon class="cls-1" points="274.35 23.27 282.29 23.27 295.95 9.6 307.35 9.6 307.35 8.19 328.22 8.19 328.22 9.6 380.35 9.6 370.74 0 274.35 0 274.35 23.27"/>
    <path class="cls-1" d="M0,46.94v45.32l5.73,5.73,29.55-29.55h9.94v-1.48h7.25v1.48h20.31l29.81-29.81v-18.19h-46.75v26.5h-22.12v2.38H13.7v-2.38H0ZM87.79,33.85h2.88v-2.88h1.75v2.88h2.88v1.75h-2.88v2.88h-1.75v-2.88h-2.88v-1.75ZM18.08,69.19c0,2.42-1.96,4.37-4.38,4.38-2.42,0-4.37-1.96-4.38-4.38,0-2.42,1.96-4.37,4.38-4.38,2.42,0,4.37,1.96,4.38,4.38Z"/>
    <path class="cls-1" d="M354.1,11.1v14.37h35.07l57.52,57.52h7.05L381.85,11.1h-27.75ZM364.6,22.95c-2.42,0-4.37-1.96-4.38-4.38,0-2.42,1.96-4.37,4.38-4.38,2.42,0,4.37,1.96,4.38,4.38,0,2.42-1.96,4.37-4.38,4.38Z"/>
    <rect class="cls-1" x="216.1" y="17.09" width="40.5" height="2.96"/>
    <path class="cls-1" d="M10.83,69.19c0,1.59,1.29,2.87,2.88,2.88,1.59,0,2.87-1.29,2.88-2.88,0-1.59-1.29-2.87-2.88-2.88-1.59,0-2.87,1.29-2.88,2.88ZM15.93,69.19c0,1.23-1,2.23-2.23,2.23s-2.23-1-2.23-2.23,1-2.23,2.23-2.23,2.23,1,2.23,2.23Z"/>
    <path class="cls-1" d="M86.1.86v18.08h52.42V7.94h25.73l15.33,15.33h8.52v-1.17h18.67v1.17h66.08V0h-15.29v12.08h-73.43V0l-98.02.86ZM89.29,16.34h-1.62V6.66h1.62v9.69ZM93.22,16.34h-1.62V6.66h1.62v9.69ZM97.16,16.34h-1.62V6.66h1.62v9.69ZM101.1,16.34h-1.62V6.66h1.62v9.69ZM105.04,16.34h-1.62V6.66h1.62v9.69ZM108.97,16.34h-1.62V6.66h1.62v9.69ZM112.91,16.34h-1.62V6.66h1.62v9.69ZM116.85,16.34h-1.62V6.66h1.62v9.69ZM120.79,16.34h-1.62V6.66h1.62v9.69ZM124.72,16.34h-1.62V6.66h1.62v9.69ZM128.66,16.34h-1.62V6.66h1.62v9.69ZM132.6,16.34h-1.62V6.66h1.62v9.69ZM136.54,16.34h-1.62V6.66h1.62v9.69ZM214.6,15.59h43.5v5.96h-43.5v-5.96Z"/>
    <polygon class="cls-1" points="35.91 69.94 22.22 83.62 22.22 98.94 27.22 98.94 27.22 97.81 55.1 97.81 55.1 98.94 58.85 98.94 58.85 69.94 52.47 69.94 52.47 71.42 45.22 71.42 45.22 69.94 35.91 69.94"/>
    <path class="cls-1" d="M78.76,116.38v-19.87l25.18-25.18-15.96-15.96-14.56,14.56h-13.06v30.5h-5.25v1.25h-27.88v-1.25h-6.5v-15.31l-13.93,13.93,8.11,8.11h48.25v9.22h15.61ZM62.72,94.56v-18.12c0-1.24,1.01-2.25,2.25-2.25s2.25,1.01,2.25,2.25v18.12c0,1.24-1.01,2.25-2.25,2.25s-2.25-1.01-2.25-2.25Z"/>
    <path class="cls-1" d="M364.6,15.7c-1.59,0-2.87,1.29-2.88,2.88,0,1.59,1.29,2.87,2.88,2.88,1.59,0,2.87-1.29,2.88-2.88,0-1.59-1.29-2.87-2.88-2.88ZM364.6,20.8c-1.23,0-2.23-1-2.23-2.23s1-2.23,2.23-2.23,2.23,1,2.23,2.23-1,2.23-2.23,2.23Z"/>
    <path class="cls-1" d="M152.6,18.44c-1.59,0-2.87,1.29-2.88,2.88,0,1.59,1.29,2.87,2.88,2.88,1.59,0,2.87-1.29,2.88-2.88,0-1.59-1.29-2.87-2.88-2.88ZM152.6,23.54c-1.23,0-2.23-1-2.23-2.23s1-2.23,2.23-2.23,2.23,1,2.23,2.23-1,2.23-2.23,2.23Z"/>
    <path class="cls-1" d="M22.91,18.94h61.69V.87L19.87,1.44l-7.23,7.23,10.27,10.27ZM26.22,8.6h2.88v-2.88h1.75v2.88h2.88v1.75h-2.88v2.88h-1.75v-2.88h-2.88v-1.75Z"/>
    <path class="cls-1" d="M178.95,24.77l-15.33-15.33h-23.61v11h-35.92v18.81l-15.06,15.06,15.96,15.96,8.17-8.17v-20.58l9.76-9.76h193.17l6.3-6.3h30.21v-14.37h-24.38v1.33h-20.88v-1.33h-10.77l-13.67,13.67h-76.14v1.08h-18.67v-1.08h-9.14ZM152.6,25.69c-2.42,0-4.37-1.96-4.38-4.38,0-2.42,1.96-4.37,4.38-4.38,2.42,0,4.37,1.96,4.38,4.38,0,2.42-1.96,4.37-4.38,4.38ZM325.04,20.8h21.45c.89,0,1.61.72,1.61,1.61s-.72,1.61-1.61,1.61h-21.45c-.89,0-1.61-.72-1.61-1.61s.72-1.61,1.61-1.61Z"/>
    <path class="cls-1" d="M13.7,45.44v-2.38h20.02v2.38h20.62v-25H22.29l-10.71-10.71L0,21.31v24.13h13.7ZM36.85,27.27h13.17v13.17h-13.17v-13.17Z"/>
    <rect class="cls-1" x="38.35" y="28.77" width="10.17" height="10.17"/>
    <polygon class="cls-2" points="187.6 0 251.93 0 251.93 5.19 242.93 5.19 238.81 9.31 209.43 9.31 209.43 4.66 187.6 4.66 187.6 0"/>
    <path class="cls-2" d="M186.1,43.88c-2.02,0-3.66,1.64-3.66,3.66s1.64,3.66,3.66,3.66,3.66-1.64,3.66-3.66-1.64-3.66-3.66-3.66ZM186.1,50.12c-1.43,0-2.58-1.16-2.58-2.58s1.16-2.58,2.58-2.58,2.58,1.16,2.58,2.58-1.16,2.58-2.58,2.58Z"/>
    <path class="cls-2" d="M142.6,43.88c-2.02,0-3.66,1.64-3.66,3.66s1.64,3.66,3.66,3.66,3.66-1.64,3.66-3.66-1.64-3.66-3.66-3.66ZM142.6,50.12c-1.43,0-2.58-1.16-2.58-2.58s1.16-2.58,2.58-2.58,2.58,1.16,2.58,2.58-1.16,2.58-2.58,2.58Z"/>
    <path class="cls-2" d="M171.6,43.88c-2.02,0-3.66,1.64-3.66,3.66s1.64,3.66,3.66,3.66,3.66-1.64,3.66-3.66-1.64-3.66-3.66-3.66ZM171.6,50.12c-1.43,0-2.58-1.16-2.58-2.58s1.16-2.58,2.58-2.58,2.58,1.16,2.58,2.58-1.16,2.58-2.58,2.58Z"/>
    <path class="cls-2" d="M200.6,43.88c-2.02,0-3.66,1.64-3.66,3.66s1.64,3.66,3.66,3.66,3.66-1.64,3.66-3.66-1.64-3.66-3.66-3.66ZM200.6,50.12c-1.43,0-2.58-1.16-2.58-2.58s1.16-2.58,2.58-2.58,2.58,1.16,2.58,2.58-1.16,2.58-2.58,2.58Z"/>
    <path class="cls-2" d="M381.76,32.94h-46.92l-7.5,7.5h-43.75v5h-69.71v-6.41h-78.98v16.34h72.76v3.84h100.43v-3.71h47v-11.01h20.95l26.93,26.93v6.65h12.77v-11.15l-33.98-33.98ZM142.6,52.23c-2.59,0-4.69-2.1-4.69-4.69s2.1-4.69,4.69-4.69,4.69,2.1,4.69,4.69-2.1,4.69-4.69,4.69ZM157.1,52.23c-2.59,0-4.69-2.1-4.69-4.69s2.1-4.69,4.69-4.69,4.69,2.1,4.69,4.69-2.1,4.69-4.69,4.69ZM171.6,52.23c-2.59,0-4.69-2.1-4.69-4.69s2.1-4.69,4.69-4.69,4.69,2.1,4.69,4.69-2.1,4.69-4.69,4.69ZM186.1,52.23c-2.59,0-4.69-2.1-4.69-4.69s2.1-4.69,4.69-4.69,4.69,2.1,4.69,4.69-2.1,4.69-4.69,4.69ZM200.6,52.23c-2.59,0-4.69-2.1-4.69-4.69s2.1-4.69,4.69-4.69,4.69,2.1,4.69,4.69-2.1,4.69-4.69,4.69ZM348.1,49.37h-43.5v-3.66h43.5v3.66Z"/>
    <path class="cls-2" d="M157.1,43.88c-2.02,0-3.66,1.64-3.66,3.66s1.64,3.66,3.66,3.66,3.66-1.64,3.66-3.66-1.64-3.66-3.66-3.66ZM157.1,50.12c-1.43,0-2.58-1.16-2.58-2.58s1.16-2.58,2.58-2.58,2.58,1.16,2.58,2.58-1.16,2.58-2.58,2.58Z"/>
    <rect class="cls-2" x="438.95" y="3.1" width="2.71" height="24.87" transform="translate(117.98 315.89) rotate(-45)"/>
    <polygon class="cls-2" points="428.53 8.03 424.7 8.03 447.67 31 447.67 27.17 428.53 8.03"/>
    <polygon class="cls-2" points="447.67 37.19 447.67 33.36 422.34 8.03 420.13 8.03 412.1 0 410.48 0 447.67 37.19"/>
    <polygon class="cls-2" points="453.74 6.13 453.74 2.3 449.9 2.3 453.74 6.13"/>
    <polygon class="cls-2" points="447.54 2.3 443.71 2.3 453.74 12.32 453.74 8.49 447.54 2.3"/>
    <rect class="cls-2" x="442.04" y="0" width="2.71" height="24.87" transform="translate(121.07 317.17) rotate(-45)"/>
    <polygon class="cls-2" points="447.67 41.69 447.67 39.54 408.12 0 394.07 0 394.07 18.22 410.6 34.75 420.29 34.75 442.6 57.06 442.6 66.93 453.74 78.06 452.95 46.97 447.67 41.69"/>
    <polygon class="cls-2" points="441.36 2.3 437.53 2.3 453.74 18.51 453.74 14.68 441.36 2.3"/>
  </g>
</svg>